<?xml version="1.0" standalone="no"?>
<!DOCTYPE svg PUBLIC "-//W3C//DTD SVG 20010904//EN"
 "http://www.w3.org/TR/2001/REC-SVG-20010904/DTD/svg10.dtd">
<svg version="1.0" xmlns="http://www.w3.org/2000/svg"
 width="100.000000pt" height="100.000000pt" viewBox="0 0 100.000000 100.000000"
 preserveAspectRatio="xMidYMid meet">

<g transform="translate(0.000000,100.000000) scale(0.100000,-0.100000)"
fill="#000000" stroke="none">
<path d="M345 846 c-107 -33 -186 -102 -232 -201 -24 -51 -28 -73 -28 -145 0
-72 4 -94 28 -146 36 -77 104 -145 182 -181 55 -25 72 -28 195 -30 99 -2 149
1 189 13 101 29 181 99 228 199 24 51 28 73 28 145 0 72 -4 94 -28 145 -47
100 -127 170 -228 199 -66 18 -276 20 -334 2z m230 -57 c63 -30 123 -90 155
-154 20 -41 25 -65 25 -135 0 -78 -3 -90 -34 -148 -38 -70 -69 -100 -145 -140
-44 -23 -63 -27 -136 -26 -69 0 -95 5 -135 24 -260 126 -238 495 35 594 63 23
170 16 235 -15z m180 -24 c25 -14 61 -47 80 -73 135 -187 46 -439 -177 -500
l-37 -10 58 54 c83 77 116 151 116 264 0 113 -33 187 -117 265 l-58 54 45 -13
c25 -8 65 -26 90 -41z"/>
<path d="M420 702 c0 -10 -17 -29 -37 -43 -41 -26 -59 -63 -50 -100 12 -42 24
-51 93 -74 85 -27 108 -57 81 -99 -24 -36 -93 -37 -125 -3 -12 13 -22 29 -22
35 0 7 -9 12 -21 12 -18 0 -20 -4 -15 -27 7 -31 58 -83 81 -83 8 0 15 -9 15
-20 0 -13 7 -20 20 -20 13 0 20 7 20 18 0 11 13 23 35 31 21 7 41 24 50 41 36
69 5 120 -86 146 -70 20 -98 49 -79 83 25 48 70 52 112 11 17 -17 36 -30 44
-28 23 5 -12 68 -46 81 -21 8 -30 18 -30 34 0 16 -6 23 -20 23 -13 0 -20 -7
-20 -18z"/>
</g>
</svg>
